<?xml version="1.0" encoding="utf-8"?>
<!-- Generator: Adobe Illustrator 22.1.0, SVG Export Plug-In . SVG Version: 6.00 Build 0)  -->
<svg version="1.1" id="Layer_1" xmlns="http://www.w3.org/2000/svg" xmlns:xlink="http://www.w3.org/1999/xlink" x="0px" y="0px"
	 viewBox="0 0 32 32" style="enable-background:new 0 0 32 32;" xml:space="preserve">
<style type="text/css">
	.st0{fill:#2F2F2F;}
</style>
<path class="st0" d="M29.4,15.6L17.6,3.8c0,0,0,0,0,0c-0.3-0.3-0.6-0.4-0.9-0.5c-0.2-0.1-0.4-0.1-0.7-0.1c0,0,0,0,0,0
	c-0.4,0-0.7,0.1-1.1,0.3c-0.2,0.1-0.4,0.2-0.5,0.4L2.6,15.6c-0.8,0.8-1,2-0.3,2.9c0.8,1.2,2.5,1.3,3.5,0.3L6.6,18v9.2
	c0,0.9,0.8,1.7,1.7,1.7h4.1c0.7,0,1.3-0.6,1.3-1.3v-7c0-0.5,0.4-0.9,0.9-0.9h2.6c0.5,0,0.9,0.4,0.9,0.9v7.1c0,0.7,0.5,1.3,1.2,1.3
	h4.4c0.9,0,1.7-0.8,1.7-1.7V18l0.9,0.9c0.9,0.9,2.4,0.9,3.3-0.1C30.4,17.9,30.3,16.5,29.4,15.6"/>
</svg>
