<svg id="ace60ebd-40d3-4369-847a-56ea67cfc287" data-name="Layer 1" xmlns="http://www.w3.org/2000/svg" viewBox="0 0 25.81 23.93"><defs><style>.\34 f29d6b8-85ff-471d-b886-1b073a1b1413{fill:#2f2f2f;}</style></defs><title>menu-m</title><path class="4f29d6b8-85ff-471d-b886-1b073a1b1413" d="M3.1,5.74A1.51,1.51,0,0,1,4.81,4H27.19A1.51,1.51,0,0,1,28.9,5.74a1.51,1.51,0,0,1-1.71,1.71H4.81A1.51,1.51,0,0,1,3.1,5.74Z" transform="translate(-3.1 -4.03)"/><path class="4f29d6b8-85ff-471d-b886-1b073a1b1413" d="M3.1,16a1.51,1.51,0,0,1,1.71-1.71H27.19A1.51,1.51,0,0,1,28.9,16a1.51,1.51,0,0,1-1.71,1.71H4.81A1.51,1.51,0,0,1,3.1,16Z" transform="translate(-3.1 -4.03)"/><path class="4f29d6b8-85ff-471d-b886-1b073a1b1413" d="M3.1,26.26a1.51,1.51,0,0,1,1.71-1.71H27.19a1.51,1.51,0,0,1,1.71,1.71A1.51,1.51,0,0,1,27.19,28H4.81A1.51,1.51,0,0,1,3.1,26.26Z" transform="translate(-3.1 -4.03)"/></svg>