<?xml version="1.0" encoding="utf-8"?>
<!-- Generator: Adobe Illustrator 22.1.0, SVG Export Plug-In . SVG Version: 6.00 Build 0)  -->
<svg version="1.1" id="Layer_1" xmlns="http://www.w3.org/2000/svg" xmlns:xlink="http://www.w3.org/1999/xlink" x="0px" y="0px"
	 viewBox="0 0 31.7 31.7" style="enable-background:new 0 0 31.7 31.7;" xml:space="preserve">
<style type="text/css">
	.st0{fill:#14A3B2;}
	.st1{fill:#FFFFFF;}
</style>
<path class="st0" d="M15.8,0c2.1,0,4.1,0.4,6.1,1.2C23.8,2,25.6,3.2,27,4.6c1.5,1.5,2.6,3.2,3.4,5.1c0.8,1.9,1.2,4,1.2,6.1
	c0,2.1-0.4,4.1-1.2,6.1c-0.8,1.9-1.9,3.7-3.4,5.1c-1.5,1.5-3.2,2.6-5.1,3.4c-1.9,0.8-4,1.2-6.1,1.2c-2.1,0-4.1-0.4-6.1-1.2
	c-1.9-0.8-3.7-1.9-5.1-3.4c-1.5-1.5-2.6-3.2-3.4-5.1C0.4,20,0,17.9,0,15.8c0-2.1,0.4-4.1,1.2-6.1C2,7.8,3.2,6.1,4.6,4.6
	C6.1,3.2,7.8,2,9.8,1.2C11.7,0.4,13.7,0,15.8,0z"/>
<polygon class="st1" points="20.8,15.8 11,22.5 11,9.2 "/>
</svg>
