<svg id="share" xmlns="http://www.w3.org/2000/svg" width="10.899" height="10.992" viewBox="0 0 10.899 10.992">
  <g id="Group_708" data-name="Group 708" transform="translate(0)">
    <path id="Path_673" data-name="Path 673" d="M10.9,6.986a1.99,1.99,0,0,0-1.564.767l-3.4-1.74A1.99,1.99,0,0,0,6.011,5.5a1.974,1.974,0,0,0-.091-.562L9.307,3.2A1.994,1.994,0,1,0,8.9,2a1.981,1.981,0,0,0,.077.52l-3.4,1.74A2,2,0,1,0,5.6,6.695L8.99,8.426a1.978,1.978,0,0,0-.092.563,2,2,0,1,0,2-2Z" transform="translate(-2.006)" fill="#fff"/>
  </g>
</svg>
